<svg width="58" height="58" viewBox="0 0 58 58" fill="none" xmlns="http://www.w3.org/2000/svg">
<path d="M28.9999 57.8002C44.9057 57.8002 57.7999 44.906 57.7999 29.0002C57.7999 13.0944 44.9057 0.200195 28.9999 0.200195C13.0941 0.200195 0.199951 13.0944 0.199951 29.0002C0.199951 44.906 13.0941 57.8002 28.9999 57.8002Z" fill="url(#paint0_radial_528_861)"/>
<path opacity="0.5" d="M28.9999 57.8002C44.9057 57.8002 57.7999 44.906 57.7999 29.0002C57.7999 13.0944 44.9057 0.200195 28.9999 0.200195C13.0941 0.200195 0.199951 13.0944 0.199951 29.0002C0.199951 44.906 13.0941 57.8002 28.9999 57.8002Z" fill="url(#paint1_radial_528_861)"/>
<path opacity="0.5" d="M28.9999 57.8002C44.9057 57.8002 57.7999 44.906 57.7999 29.0002C57.7999 13.0944 44.9057 0.200195 28.9999 0.200195C13.0941 0.200195 0.199951 13.0944 0.199951 29.0002C0.199951 44.906 13.0941 57.8002 28.9999 57.8002Z" fill="url(#paint2_radial_528_861)"/>
<path opacity="0.5" d="M28.9999 57.8002C44.9057 57.8002 57.7999 44.906 57.7999 29.0002C57.7999 13.0944 44.9057 0.200195 28.9999 0.200195C13.0941 0.200195 0.199951 13.0944 0.199951 29.0002C0.199951 44.906 13.0941 57.8002 28.9999 57.8002Z" fill="url(#paint3_radial_528_861)"/>
<path d="M28.9999 48.1522C20.7019 48.1522 18.0559 39.2602 20.5759 40.6462C23.9599 42.5182 26.1199 42.6982 28.9999 42.6982C31.8799 42.6982 34.0219 42.5182 37.4239 40.6462C39.9439 39.2602 37.2979 48.1522 28.9999 48.1522Z" fill="#643800"/>
<path d="M37.424 40.6463C34.04 42.5183 31.88 42.6983 29 42.6983C26.12 42.6983 23.978 42.5183 20.576 40.6463C19.694 40.1603 19.442 40.9163 19.838 42.1223C19.838 42.1043 19.964 40.8083 21.152 41.7083C21.152 41.7083 25.526 44.3363 28.982 44.3363C32.438 44.3363 36.812 41.7083 36.812 41.7083C38 40.8263 38.126 42.1043 38.126 42.1223C38.558 40.9163 38.306 40.1603 37.424 40.6463Z" fill="url(#paint4_linear_528_861)"/>
<path d="M22.7179 18.4882C22.8799 17.3362 21.7279 16.4542 19.6039 16.1842C17.7859 15.9322 13.6999 16.4002 10.4779 19.5502C9.88391 20.1262 10.6219 20.5942 11.1619 20.2342C13.0339 19.0282 17.7859 17.8042 21.2419 18.6502C22.6459 19.0102 22.7179 18.4882 22.7179 18.4882Z" fill="url(#paint5_linear_528_861)"/>
<path d="M35.2819 18.4879C35.1199 17.3359 36.2719 16.4539 38.3959 16.1839C40.2139 15.9499 44.2999 16.3999 47.5219 19.5499C48.1159 20.1259 47.3779 20.5939 46.8379 20.2339C44.9659 19.0279 40.2139 17.8039 36.7579 18.6499C35.3539 19.0099 35.2819 18.4879 35.2819 18.4879Z" fill="url(#paint6_linear_528_861)"/>
<path d="M40.934 25.5081C40.934 25.5081 45.686 26.3361 46.748 30.0441C46.82 30.2781 46.838 30.5301 46.82 30.7641C46.784 31.2501 46.298 31.7181 45.488 31.1961C40.448 27.9381 37.334 29.0721 35.012 29.8641C34.112 30.1701 33.392 29.2161 33.716 28.4601C33.806 28.2441 33.878 28.0101 34.022 27.8121C36.182 24.6621 40.934 25.5081 40.934 25.5081Z" fill="url(#paint7_radial_528_861)"/>
<path d="M40.7361 26.6424C40.7361 26.6424 44.6061 27.3084 46.8021 30.4764C46.7841 30.3324 46.7661 30.1884 46.7301 30.0444C45.6681 26.3364 40.9161 25.5084 40.9161 25.5084C40.9161 25.5084 36.1821 24.6624 33.9861 27.7944C33.8961 27.9204 33.8421 28.0464 33.7881 28.1724C36.8841 25.9404 40.7361 26.6424 40.7361 26.6424Z" fill="url(#paint8_linear_528_861)"/>
<path d="M17.0658 25.5081C17.0658 25.5081 12.3138 26.3361 11.2518 30.0441C11.1798 30.2781 11.1618 30.5301 11.1798 30.7641C11.2158 31.2501 11.7018 31.7181 12.5118 31.1961C17.5518 27.9381 20.6658 29.0721 22.9878 29.8641C23.8878 30.1701 24.6078 29.2161 24.2838 28.4601C24.1938 28.2441 24.1218 28.0101 23.9778 27.8121C21.8178 24.6621 17.0658 25.5081 17.0658 25.5081Z" fill="url(#paint9_radial_528_861)"/>
<path d="M17.2638 26.6424C17.2638 26.6424 13.3938 27.3084 11.1978 30.4764C11.2158 30.3324 11.2338 30.1884 11.2698 30.0444C12.3318 26.3364 17.0838 25.5084 17.0838 25.5084C17.0838 25.5084 21.8178 24.6624 24.0138 27.7944C24.1038 27.9204 24.1578 28.0464 24.2118 28.1724C21.1158 25.9404 17.2638 26.6424 17.2638 26.6424Z" fill="url(#paint10_linear_528_861)"/>
<defs>
<radialGradient id="paint0_radial_528_861" cx="0" cy="0" r="1" gradientUnits="userSpaceOnUse" gradientTransform="translate(23.3335 17.3285) scale(34.7435)">
<stop stop-color="#FFE030"/>
<stop offset="1" stop-color="#FFB92E"/>
</radialGradient>
<radialGradient id="paint1_radial_528_861" cx="0" cy="0" r="1" gradientUnits="userSpaceOnUse" gradientTransform="translate(23.3335 17.3285) scale(27.3342)">
<stop stop-color="#FFEA5F"/>
<stop offset="1" stop-color="#FFBC47" stop-opacity="0"/>
</radialGradient>
<radialGradient id="paint2_radial_528_861" cx="0" cy="0" r="1" gradientUnits="userSpaceOnUse" gradientTransform="translate(13.3095 36.1648) rotate(-2.7703) scale(12.114 9.58518)">
<stop stop-color="#FF4C00"/>
<stop offset="0.1542" stop-color="#FF4C00"/>
<stop offset="0.1795" stop-color="#FF4C00"/>
<stop offset="0.3996" stop-color="#FB4C0B" stop-opacity="0.7318"/>
<stop offset="0.7799" stop-color="#EF4B27" stop-opacity="0.2683"/>
<stop offset="1" stop-color="#E74A3A" stop-opacity="0"/>
</radialGradient>
<radialGradient id="paint3_radial_528_861" cx="0" cy="0" r="1" gradientUnits="userSpaceOnUse" gradientTransform="translate(44.6822 36.1648) rotate(-177.23) scale(12.114 9.58518)">
<stop stop-color="#FF4C00"/>
<stop offset="0.1542" stop-color="#FF4C00"/>
<stop offset="0.1795" stop-color="#FF4C00"/>
<stop offset="0.3996" stop-color="#FB4C0B" stop-opacity="0.7318"/>
<stop offset="0.7799" stop-color="#EF4B27" stop-opacity="0.2683"/>
<stop offset="1" stop-color="#E74A3A" stop-opacity="0"/>
</radialGradient>
<linearGradient id="paint4_linear_528_861" x1="28.9996" y1="37.3623" x2="28.9996" y2="44.136" gradientUnits="userSpaceOnUse">
<stop offset="0.00132565" stop-color="#3C2200"/>
<stop offset="1" stop-color="#512D00"/>
</linearGradient>
<linearGradient id="paint5_linear_528_861" x1="16.4394" y1="19.5982" x2="16.8431" y2="16.5905" gradientUnits="userSpaceOnUse">
<stop offset="0.00132565" stop-color="#3C2200"/>
<stop offset="1" stop-color="#7A4400"/>
</linearGradient>
<linearGradient id="paint6_linear_528_861" x1="41.5595" y1="19.5981" x2="41.1559" y2="16.5904" gradientUnits="userSpaceOnUse">
<stop offset="0.00132565" stop-color="#3C2200"/>
<stop offset="1" stop-color="#7A4400"/>
</linearGradient>
<radialGradient id="paint7_radial_528_861" cx="0" cy="0" r="1" gradientUnits="userSpaceOnUse" gradientTransform="translate(40.4686 28.1782) rotate(9.98082) scale(5.17587 2.49731)">
<stop offset="0.00132565" stop-color="#7A4400"/>
<stop offset="1" stop-color="#643800"/>
</radialGradient>
<linearGradient id="paint8_linear_528_861" x1="41.2175" y1="24.0132" x2="40.6567" y2="27.3098" gradientUnits="userSpaceOnUse">
<stop offset="0.00132565" stop-color="#3C2200"/>
<stop offset="1" stop-color="#512D00"/>
</linearGradient>
<radialGradient id="paint9_radial_528_861" cx="0" cy="0" r="1" gradientUnits="userSpaceOnUse" gradientTransform="translate(17.6057 28.096) rotate(170.019) scale(5.17587 2.49731)">
<stop offset="0.00132565" stop-color="#7A4400"/>
<stop offset="1" stop-color="#643800"/>
</radialGradient>
<linearGradient id="paint10_linear_528_861" x1="16.7342" y1="23.9849" x2="17.295" y2="27.2816" gradientUnits="userSpaceOnUse">
<stop offset="0.00132565" stop-color="#3C2200"/>
<stop offset="1" stop-color="#512D00"/>
</linearGradient>
</defs>
</svg>
