<svg width="898" height="537" viewBox="0 0 898 537" fill="none" xmlns="http://www.w3.org/2000/svg">
<rect width="898" height="537" fill="#FFD34F"/>
<path d="M360.25 365.5C413.407 365.5 456.5 322.407 456.5 269.25C456.5 216.093 413.407 173 360.25 173C307.093 173 264 216.093 264 269.25C264 322.407 307.093 365.5 360.25 365.5Z" fill="url(#paint0_radial_3139_73)"/>
<path opacity="0.5" d="M360.25 365.5C413.407 365.5 456.5 322.407 456.5 269.25C456.5 216.093 413.407 173 360.25 173C307.093 173 264 216.093 264 269.25C264 322.407 307.093 365.5 360.25 365.5Z" fill="url(#paint1_radial_3139_73)"/>
<path opacity="0.5" d="M360.25 365.5C413.407 365.5 456.5 322.407 456.5 269.25C456.5 216.093 413.407 173 360.25 173C307.093 173 264 216.093 264 269.25C264 322.407 307.093 365.5 360.25 365.5Z" fill="url(#paint2_radial_3139_73)"/>
<path opacity="0.5" d="M360.25 365.5C413.407 365.5 456.5 322.407 456.5 269.25C456.5 216.093 413.407 173 360.25 173C307.093 173 264 216.093 264 269.25C264 322.407 307.093 365.5 360.25 365.5Z" fill="url(#paint3_radial_3139_73)"/>
<path d="M360.25 333.256C332.518 333.256 323.675 303.539 332.097 308.171C343.406 314.427 350.625 315.029 360.25 315.029C369.875 315.029 377.034 314.427 388.403 308.171C396.825 303.539 387.982 333.256 360.25 333.256Z" fill="#643800"/>
<path d="M388.403 308.171C377.094 314.428 369.875 315.029 360.25 315.029C350.625 315.029 343.466 314.428 332.097 308.171C329.149 306.547 328.307 309.074 329.63 313.104C329.63 313.044 330.051 308.713 334.022 311.721C334.022 311.721 348.64 320.503 360.19 320.503C371.74 320.503 386.358 311.721 386.358 311.721C390.328 308.773 390.749 313.044 390.749 313.104C392.193 309.074 391.351 306.547 388.403 308.171Z" fill="url(#paint4_linear_3139_73)"/>
<path d="M339.256 234.119C339.797 230.269 335.947 227.321 328.849 226.419C322.773 225.577 309.118 227.141 298.35 237.668C296.365 239.593 298.831 241.157 300.636 239.954C306.892 235.923 322.773 231.833 334.323 234.66C339.015 235.863 339.256 234.119 339.256 234.119Z" fill="url(#paint5_linear_3139_73)"/>
<path d="M381.244 234.118C380.703 230.268 384.553 227.32 391.651 226.418C397.727 225.636 411.383 227.14 422.151 237.667C424.136 239.592 421.669 241.156 419.865 239.953C413.608 235.922 397.727 231.832 386.177 234.659C381.485 235.862 381.244 234.118 381.244 234.118Z" fill="url(#paint6_linear_3139_73)"/>
<path d="M400.133 257.58C400.133 257.58 416.015 260.347 419.564 272.739C419.804 273.521 419.865 274.363 419.804 275.145C419.684 276.769 418.06 278.334 415.353 276.589C398.509 265.701 388.102 269.491 380.342 272.137C377.334 273.16 374.928 269.972 376.011 267.445C376.311 266.723 376.552 265.941 377.033 265.28C384.252 254.752 400.133 257.58 400.133 257.58Z" fill="url(#paint7_radial_3139_73)"/>
<path d="M399.473 261.371C399.473 261.371 412.407 263.596 419.746 274.184C419.686 273.703 419.626 273.221 419.505 272.74C415.956 260.348 400.075 257.581 400.075 257.581C400.075 257.581 384.254 254.753 376.915 265.221C376.614 265.642 376.433 266.063 376.253 266.484C386.6 259.024 399.473 261.371 399.473 261.371Z" fill="url(#paint8_linear_3139_73)"/>
<path d="M320.367 257.581C320.367 257.581 304.486 260.348 300.937 272.74C300.696 273.522 300.636 274.364 300.696 275.146C300.816 276.77 302.441 278.334 305.148 276.59C321.991 265.702 332.398 269.492 340.158 272.138C343.166 273.161 345.573 269.973 344.49 267.446C344.189 266.724 343.948 265.942 343.467 265.281C336.248 254.753 320.367 257.581 320.367 257.581Z" fill="url(#paint9_radial_3139_73)"/>
<path d="M321.029 261.371C321.029 261.371 308.095 263.596 300.756 274.184C300.817 273.703 300.877 273.221 300.997 272.74C304.546 260.348 320.427 257.581 320.427 257.581C320.427 257.581 336.249 254.753 343.588 265.221C343.888 265.642 344.069 266.063 344.249 266.484C333.902 259.024 321.029 261.371 321.029 261.371Z" fill="url(#paint10_linear_3139_73)"/>
<path d="M586.361 306.816C582.406 311.211 576.62 314.751 569.003 317.437C561.386 320.122 553.036 321.465 543.954 321.465C529.989 321.465 518.832 317.192 510.482 308.647C502.133 300.103 497.665 288.213 497.079 272.979L497.006 263.75C497.006 253.252 498.861 244.097 502.572 236.284C506.283 228.423 511.581 222.393 518.466 218.193C525.399 213.945 533.407 211.821 542.489 211.821C555.771 211.821 566.073 214.873 573.397 220.977C580.771 227.031 585.067 236.089 586.288 248.149H561.532C560.653 242.192 558.749 237.944 555.819 235.405C552.89 232.866 548.739 231.597 543.368 231.597C536.923 231.597 531.942 234.331 528.427 239.8C524.911 245.269 523.129 253.081 523.08 263.237V269.683C523.08 280.327 524.887 288.335 528.5 293.706C532.162 299.028 537.899 301.689 545.712 301.689C552.401 301.689 557.382 300.2 560.653 297.222V280.669H542.782V263.018H586.361V306.816ZM624.705 320H599.949V240.752H624.705V320ZM598.484 220.317C598.484 216.802 599.754 213.921 602.293 211.675C604.832 209.429 608.128 208.306 612.181 208.306C616.233 208.306 619.529 209.429 622.068 211.675C624.607 213.921 625.877 216.802 625.877 220.317C625.877 223.833 624.607 226.714 622.068 228.96C619.529 231.206 616.233 232.329 612.181 232.329C608.128 232.329 604.832 231.206 602.293 228.96C599.754 226.714 598.484 223.833 598.484 220.317Z" fill="black"/>
<defs>
<radialGradient id="paint0_radial_3139_73" cx="0" cy="0" r="1" gradientUnits="userSpaceOnUse" gradientTransform="translate(341.313 230.243) scale(116.113)">
<stop stop-color="#FFE030"/>
<stop offset="1" stop-color="#FFB92E"/>
</radialGradient>
<radialGradient id="paint1_radial_3139_73" cx="0" cy="0" r="1" gradientUnits="userSpaceOnUse" gradientTransform="translate(341.313 230.243) scale(91.3514)">
<stop stop-color="#FFEA5F"/>
<stop offset="1" stop-color="#FFBC47" stop-opacity="0"/>
</radialGradient>
<radialGradient id="paint2_radial_3139_73" cx="0" cy="0" r="1" gradientUnits="userSpaceOnUse" gradientTransform="translate(307.812 293.194) rotate(-2.7703) scale(40.4851 32.0338)">
<stop stop-color="#FF4C00"/>
<stop offset="0.1542" stop-color="#FF4C00"/>
<stop offset="0.1795" stop-color="#FF4C00"/>
<stop offset="0.3996" stop-color="#FB4C0B" stop-opacity="0.7318"/>
<stop offset="0.7799" stop-color="#EF4B27" stop-opacity="0.2683"/>
<stop offset="1" stop-color="#E74A3A" stop-opacity="0"/>
</radialGradient>
<radialGradient id="paint3_radial_3139_73" cx="0" cy="0" r="1" gradientUnits="userSpaceOnUse" gradientTransform="translate(412.66 293.194) rotate(-177.23) scale(40.4851 32.0338)">
<stop stop-color="#FF4C00"/>
<stop offset="0.1542" stop-color="#FF4C00"/>
<stop offset="0.1795" stop-color="#FF4C00"/>
<stop offset="0.3996" stop-color="#FB4C0B" stop-opacity="0.7318"/>
<stop offset="0.7799" stop-color="#EF4B27" stop-opacity="0.2683"/>
<stop offset="1" stop-color="#E74A3A" stop-opacity="0"/>
</radialGradient>
<linearGradient id="paint4_linear_3139_73" x1="360.249" y1="297.196" x2="360.249" y2="319.834" gradientUnits="userSpaceOnUse">
<stop offset="0.00132565" stop-color="#3C2200"/>
<stop offset="1" stop-color="#512D00"/>
</linearGradient>
<linearGradient id="paint5_linear_3139_73" x1="318.273" y1="237.828" x2="319.622" y2="227.777" gradientUnits="userSpaceOnUse">
<stop offset="0.00132565" stop-color="#3C2200"/>
<stop offset="1" stop-color="#7A4400"/>
</linearGradient>
<linearGradient id="paint6_linear_3139_73" x1="402.224" y1="237.828" x2="400.875" y2="227.776" gradientUnits="userSpaceOnUse">
<stop offset="0.00132565" stop-color="#3C2200"/>
<stop offset="1" stop-color="#7A4400"/>
</linearGradient>
<radialGradient id="paint7_radial_3139_73" cx="0" cy="0" r="1" gradientUnits="userSpaceOnUse" gradientTransform="translate(398.578 266.503) rotate(9.98082) scale(17.2978 8.34605)">
<stop offset="0.00132565" stop-color="#7A4400"/>
<stop offset="1" stop-color="#643800"/>
</radialGradient>
<linearGradient id="paint8_linear_3139_73" x1="401.082" y1="252.584" x2="399.208" y2="263.601" gradientUnits="userSpaceOnUse">
<stop offset="0.00132565" stop-color="#3C2200"/>
<stop offset="1" stop-color="#512D00"/>
</linearGradient>
<radialGradient id="paint9_radial_3139_73" cx="0" cy="0" r="1" gradientUnits="userSpaceOnUse" gradientTransform="translate(322.171 266.229) rotate(170.019) scale(17.2978 8.34605)">
<stop offset="0.00132565" stop-color="#7A4400"/>
<stop offset="1" stop-color="#643800"/>
</radialGradient>
<linearGradient id="paint10_linear_3139_73" x1="319.259" y1="252.489" x2="321.133" y2="263.507" gradientUnits="userSpaceOnUse">
<stop offset="0.00132565" stop-color="#3C2200"/>
<stop offset="1" stop-color="#512D00"/>
</linearGradient>
</defs>
</svg>
