<svg width="58" height="58" viewBox="0 0 58 58" fill="none" xmlns="http://www.w3.org/2000/svg">
<path d="M28.8 57.6C44.7058 57.6 57.6 44.7058 57.6 28.8C57.6 12.8942 44.7058 0 28.8 0C12.8942 0 0 12.8942 0 28.8C0 44.7058 12.8942 57.6 28.8 57.6Z" fill="url(#paint0_radial_2984:181)"/>
<path d="M19.3964 36.1003C20.9278 36.1003 22.1692 34.2232 22.1692 31.9076C22.1692 29.592 20.9278 27.7148 19.3964 27.7148C17.865 27.7148 16.6235 29.592 16.6235 31.9076C16.6235 34.2232 17.865 36.1003 19.3964 36.1003Z" fill="url(#paint1_radial_2984:181)"/>
<path d="M18.2979 30.4073C19.9187 30.4073 21.2716 32.0683 21.6601 34.3188C21.9816 33.6356 22.1691 32.8051 22.1691 31.9076C22.1691 29.5902 20.9234 27.7148 19.3963 27.7148C18.0701 27.7148 16.9583 29.1214 16.6904 31.0101C17.1727 30.6216 17.7219 30.4073 18.2979 30.4073Z" fill="url(#paint2_linear_2984:181)"/>
<path d="M16.4359 21.7002C13.9578 21.7002 11.8279 24.5534 14.6008 24.9955C17.3736 25.4375 22.4237 27.8219 24.5535 29.4695C24.7143 29.657 25.3438 29.6034 25.3037 29.1078C25.2903 27.2191 19.4499 21.7002 16.4359 21.7002Z" fill="url(#paint3_linear_2984:181)"/>
<path d="M38.2035 36.1003C39.7349 36.1003 40.9763 34.2232 40.9763 31.9076C40.9763 29.592 39.7349 27.7148 38.2035 27.7148C36.6721 27.7148 35.4307 29.592 35.4307 31.9076C35.4307 34.2232 36.6721 36.1003 38.2035 36.1003Z" fill="url(#paint4_radial_2984:181)"/>
<path d="M39.3019 30.4073C37.6811 30.4073 36.3281 32.0683 35.9397 34.3188C35.6182 33.6356 35.4307 32.8051 35.4307 31.9076C35.4307 29.5902 36.6764 27.7148 38.2035 27.7148C39.5296 27.7148 40.6414 29.1214 40.9094 31.0101C40.4271 30.6216 39.8779 30.4073 39.3019 30.4073Z" fill="url(#paint5_linear_2984:181)"/>
<path d="M41.164 21.7002C43.6422 21.7002 45.772 24.5534 42.9992 24.9955C40.2263 25.4375 35.1763 27.8219 33.0464 29.4695C32.8857 29.657 32.2561 29.6034 32.2963 29.1078C32.3097 27.2191 38.1501 21.7002 41.164 21.7002Z" fill="url(#paint6_linear_2984:181)"/>
<path d="M28.8 57.6C44.7058 57.6 57.6 44.7058 57.6 28.8C57.6 12.8942 44.7058 0 28.8 0C12.8942 0 0 12.8942 0 28.8C0 44.7058 12.8942 57.6 28.8 57.6Z" fill="url(#paint7_radial_2984:181)"/>
<path d="M49.7233 51.8264H8.01014C7.31358 51.8264 6.75098 51.2638 6.75098 50.5672V39.851C6.75098 39.1544 7.31358 38.5918 8.01014 38.5918H49.7233C50.4198 38.5918 50.9824 39.1544 50.9824 39.851V50.5672C50.9824 51.2638 50.4198 51.8264 49.7233 51.8264Z" fill="url(#paint8_linear_2984:181)"/>
<path d="M15.9943 49.1207L15.3915 48.4643C14.7619 48.9867 13.851 49.2278 12.9937 49.2278C11.3729 49.2278 10.3013 48.4107 10.3013 47.1114C10.3013 45.8924 11.2389 45.303 11.5738 45.0351L11.9623 44.7538L11.6408 44.4189C11.4265 44.1912 10.8907 43.6286 10.8907 42.7713C10.8907 41.6729 11.8149 40.8691 13.1679 40.8691C14.4806 40.8691 15.3915 41.6059 15.3915 42.7177C15.3915 43.6688 14.7083 44.2448 14.3199 44.5395L13.8912 44.861L15.3111 46.4014C15.5121 45.879 15.5389 45.3298 15.5255 44.7002H17.6821V45.812H16.7444C16.7043 46.4282 16.5435 47.0176 16.2756 47.4463L17.8295 49.1207H15.9943ZM14.4806 47.4864L12.766 45.6379L12.4311 45.8924C12.123 46.1335 11.8417 46.4148 11.8417 46.9104C11.8417 47.5802 12.3642 47.9419 13.1813 47.9419C13.6769 47.9285 14.1323 47.7811 14.4806 47.4864ZM12.3106 42.7713C12.3106 43.2535 12.6722 43.5482 12.8464 43.7357L13.0741 43.9769L13.3688 43.7357C13.5429 43.6018 13.9582 43.2803 13.9582 42.7713C13.9582 42.3426 13.6769 41.981 13.1277 41.981C12.6187 41.981 12.3106 42.3292 12.3106 42.7713Z" fill="url(#paint9_radial_2984:181)"/>
<path d="M23.1473 43.3206L23.0803 43.7493H25.237V44.8209H22.9062L22.5579 47.1249C22.3168 48.5984 21.4327 49.1074 20.0262 49.1074H19.0617L19.0483 47.875H19.8922C20.7094 47.875 21.071 47.5267 21.2184 46.6025L21.5131 44.8209H19.9592V43.7493H21.6738L21.781 43.0125C22.0355 41.4586 22.9464 41.0166 24.3395 41.0166H25.237V42.2624H24.4199C23.576 42.2758 23.2545 42.6374 23.1473 43.3206Z" fill="url(#paint10_radial_2984:181)"/>
<path d="M32.4837 44.4729L32.2426 45.6651H33.5152L33.2606 47.0314H31.9613L31.546 49.1077H30.1395L30.5548 47.0314H29.1349L28.7196 49.1077H27.3265L27.7418 47.0314H26.6567L26.9246 45.6651H28.0365L28.2642 44.4729H27.0452L27.3131 43.1066H28.5455L28.9607 41.0303H30.3672L29.952 43.1066H31.3719L31.7872 41.0303H33.1803L32.765 43.1066H33.9304L33.6625 44.4729H32.4837ZM31.0906 44.4729H29.6707L29.4162 45.6651H30.8361L31.0906 44.4729Z" fill="url(#paint11_radial_2984:181)"/>
<path d="M36.824 40.7354C37.9894 40.7354 38.7396 41.606 38.7396 42.5839C38.7396 43.5484 38.0162 44.4191 36.8642 44.4191C35.6988 44.4191 34.9219 43.5484 34.9219 42.5839C34.9219 41.6194 35.6988 40.7354 36.824 40.7354ZM35.6452 49.1074L41.9544 40.8023H43.4011L37.0785 49.1074H35.6452ZM36.8508 43.4814C37.4134 43.4814 37.7483 43.0393 37.7483 42.5839C37.7483 42.1285 37.4134 41.6864 36.8508 41.6864C36.3016 41.6864 35.9265 42.0883 35.9399 42.5973C35.9399 43.0527 36.3016 43.4814 36.8508 43.4814ZM42.0348 45.6113C43.2002 45.6113 43.9369 46.482 43.9369 47.4598C43.9369 48.4243 43.2002 49.2816 42.0482 49.2816C40.8962 49.2816 40.1327 48.4377 40.1327 47.4598C40.1327 46.482 40.8828 45.6113 42.0348 45.6113ZM42.0348 48.3305C42.584 48.3305 42.9189 47.9019 42.9189 47.4464C42.9189 46.991 42.5974 46.5489 42.0214 46.5489C41.4588 46.5489 41.1239 46.991 41.1239 47.4464C41.1239 47.9287 41.4856 48.3305 42.0348 48.3305Z" fill="url(#paint12_radial_2984:181)"/>
<path d="M45.2896 48.2502C45.2896 47.6072 45.7852 47.2187 46.3746 47.2187C46.9372 47.2187 47.4328 47.6072 47.4328 48.2502C47.4328 48.8663 46.9506 49.2816 46.3746 49.2816C45.7584 49.2816 45.2896 48.8663 45.2896 48.2502ZM45.8923 46.2007L45.5842 41.0435H47.1515L46.83 46.2007H45.8923Z" fill="url(#paint13_radial_2984:181)"/>
<defs>
<radialGradient id="paint0_radial_2984:181" cx="0" cy="0" r="1" gradientUnits="userSpaceOnUse" gradientTransform="translate(22.3091 17.335) rotate(-29.698) scale(29.0637 23.7433)">
<stop stop-color="#FF9114"/>
<stop offset="1" stop-color="#FF4E0D"/>
</radialGradient>
<radialGradient id="paint1_radial_2984:181" cx="0" cy="0" r="1" gradientUnits="userSpaceOnUse" gradientTransform="translate(18.5555 32.0091) rotate(73.854) scale(4.06923 2.63272)">
<stop offset="0.00132565" stop-color="#7A4400"/>
<stop offset="1" stop-color="#643800"/>
</radialGradient>
<linearGradient id="paint2_linear_2984:181" x1="19.4297" y1="28.9911" x2="19.4297" y2="32.745" gradientUnits="userSpaceOnUse">
<stop offset="0.00132565" stop-color="#3C2200"/>
<stop offset="1" stop-color="#512D00"/>
</linearGradient>
<linearGradient id="paint3_linear_2984:181" x1="19.2906" y1="31.6652" x2="19.2906" y2="22.9642" gradientUnits="userSpaceOnUse">
<stop offset="0.00132565" stop-color="#3C2200"/>
<stop offset="1" stop-color="#643800"/>
</linearGradient>
<radialGradient id="paint4_radial_2984:181" cx="0" cy="0" r="1" gradientUnits="userSpaceOnUse" gradientTransform="translate(39.1038 31.9583) rotate(106.146) scale(4.06923 2.63272)">
<stop offset="0.00132565" stop-color="#7A4400"/>
<stop offset="1" stop-color="#643800"/>
</radialGradient>
<linearGradient id="paint5_linear_2984:181" x1="38.1701" y1="28.9911" x2="38.1701" y2="32.745" gradientUnits="userSpaceOnUse">
<stop offset="0.00132565" stop-color="#3C2200"/>
<stop offset="1" stop-color="#512D00"/>
</linearGradient>
<linearGradient id="paint6_linear_2984:181" x1="38.3094" y1="31.6652" x2="38.3094" y2="22.9642" gradientUnits="userSpaceOnUse">
<stop offset="0.00132565" stop-color="#3C2200"/>
<stop offset="1" stop-color="#643800"/>
</linearGradient>
<radialGradient id="paint7_radial_2984:181" cx="0" cy="0" r="1" gradientUnits="userSpaceOnUse" gradientTransform="translate(28.8904 52.145) rotate(0.862144) scale(22.8917 11.3921)">
<stop stop-color="#7A4400" stop-opacity="0.5"/>
<stop offset="0.6008" stop-color="#894D00" stop-opacity="0.1981"/>
<stop offset="0.995" stop-color="#965500" stop-opacity="0"/>
</radialGradient>
<linearGradient id="paint8_linear_2984:181" x1="28.866" y1="38.6011" x2="28.866" y2="53.7244" gradientUnits="userSpaceOnUse">
<stop offset="0.00132565" stop-color="#3C2200"/>
<stop offset="1"/>
</linearGradient>
<radialGradient id="paint9_radial_2984:181" cx="0" cy="0" r="1" gradientUnits="userSpaceOnUse" gradientTransform="translate(28.6266 45.1922) scale(34.6907)">
<stop offset="0.00132565" stop-color="white"/>
<stop offset="1" stop-color="#A8BBBD"/>
</radialGradient>
<radialGradient id="paint10_radial_2984:181" cx="0" cy="0" r="1" gradientUnits="userSpaceOnUse" gradientTransform="translate(28.6265 45.1923) scale(34.6907)">
<stop offset="0.00132565" stop-color="white"/>
<stop offset="1" stop-color="#A8BBBD"/>
</radialGradient>
<radialGradient id="paint11_radial_2984:181" cx="0" cy="0" r="1" gradientUnits="userSpaceOnUse" gradientTransform="translate(28.6263 45.1926) scale(34.6907)">
<stop offset="0.00132565" stop-color="white"/>
<stop offset="1" stop-color="#A8BBBD"/>
</radialGradient>
<radialGradient id="paint12_radial_2984:181" cx="0" cy="0" r="1" gradientUnits="userSpaceOnUse" gradientTransform="translate(28.6265 45.1923) scale(34.6907)">
<stop offset="0.00132565" stop-color="white"/>
<stop offset="1" stop-color="#A8BBBD"/>
</radialGradient>
<radialGradient id="paint13_radial_2984:181" cx="0" cy="0" r="1" gradientUnits="userSpaceOnUse" gradientTransform="translate(28.6262 45.1924) scale(34.6907)">
<stop offset="0.00132565" stop-color="white"/>
<stop offset="1" stop-color="#A8BBBD"/>
</radialGradient>
</defs>
</svg>
