<svg width="58" height="59" viewBox="0 0 58 59" fill="none" xmlns="http://www.w3.org/2000/svg">
<path opacity="0.75" d="M13.3203 53.1C12.7443 52.722 12.0063 52.668 11.3944 52.992C11.3944 52.992 11.3944 52.992 11.3764 52.992C8.64036 54.396 8.33437 50.976 5.81438 51.714C3.54639 52.38 -1.47558 54.072 0.774404 55.638C2.4844 56.844 4.46439 55.512 5.72438 56.25C8.15437 57.654 8.01037 58.086 10.0624 57.42C13.9683 56.142 13.1043 57.636 15.9123 58.158C17.9463 58.536 20.3583 57.852 21.4923 56.7C18.5763 55.926 15.8223 54.702 13.3203 53.1Z" fill="url(#paint0_linear_2984:131)"/>
<path d="M12.4383 52.5059C12.0963 52.6499 11.7543 52.8119 11.3763 52.9919C8.64033 54.3958 8.44233 51.7139 5.81434 51.7139C3.38435 51.7139 -1.47562 54.0719 0.774367 55.6378C2.48436 56.8438 4.46435 55.5118 5.72434 56.2498C8.15433 57.6538 8.01033 58.0858 10.0623 57.4198C13.9683 56.1418 13.1043 57.6358 15.9123 58.1578C17.9463 58.5358 20.3583 57.8518 21.4923 56.6998C18.2163 55.8358 15.1563 54.3959 12.4383 52.5059Z" fill="url(#paint1_linear_2984:131)"/>
<path d="M28.8003 57.5997C44.7061 57.5997 57.6002 44.7056 57.6002 28.7999C57.6002 12.8941 44.7061 0 28.8003 0C12.8946 0 0.000488281 12.8941 0.000488281 28.7999C0.000488281 44.7056 12.8946 57.5997 28.8003 57.5997Z" fill="url(#paint2_radial_2984:131)"/>
<path opacity="0.5" d="M57.6 28.7999C57.6 44.7118 44.7121 57.5097 28.8001 57.5997C12.9962 57.6717 0.0722982 44.7658 0.000298554 28.7999C-0.0717011 12.8879 12.8882 0 28.8001 0C44.7121 0 57.6 12.8879 57.6 28.7999Z" fill="url(#paint3_radial_2984:131)"/>
<path d="M19.2063 23.8138C20.1603 22.8598 15.1384 23.2378 12.8524 24.7318C11.6644 25.5058 7.09241 26.0458 9.39639 50.0937C11.8984 52.3977 14.8144 54.2517 18.0004 55.5477C10.9984 38.7538 17.8384 25.1818 19.2063 23.8138Z" fill="url(#paint4_linear_2984:131)"/>
<path d="M21.4563 49.3735C24.7862 48.1675 26.4782 47.3755 28.8002 47.3755C31.1222 47.3755 32.8322 48.1675 36.1442 49.3735C39.2402 50.4895 40.9682 48.1675 40.6262 44.7835C39.4202 37.6556 34.2362 32.1836 28.8002 32.1836C23.5263 32.1836 18.4863 37.2236 17.0823 43.9915C16.3623 47.7895 18.1263 50.5615 21.4563 49.3735Z" fill="url(#paint5_radial_2984:131)"/>
<path d="M39.5281 40.9135C37.4222 35.7656 33.1922 32.1836 28.8002 32.1836C24.4082 32.1836 20.1783 35.7656 18.0723 40.9135C18.1263 40.8055 19.4763 37.9976 22.2662 38.5916C25.1102 39.2036 28.8002 39.2756 28.8002 39.2756C28.8002 39.2756 32.4722 39.1856 35.3342 38.5916C38.1962 37.9976 39.5281 40.9135 39.5281 40.9135Z" fill="url(#paint6_linear_2984:131)"/>
<path d="M28.8003 37.53C31.1403 37.53 33.4803 37.422 35.8023 37.188C35.5863 36.936 35.3703 36.702 35.1363 36.468C33.2283 34.542 30.9783 33.48 28.8003 33.48C26.6223 33.48 24.3723 34.542 22.4643 36.468C22.2303 36.702 22.0143 36.936 21.7983 37.188C24.1203 37.422 26.4603 37.53 28.8003 37.53Z" fill="url(#paint7_radial_2984:131)"/>
<path d="M28.7999 42.8037C25.434 42.8037 20.682 44.2437 19.584 48.5277C20.394 48.2937 21.348 47.9157 22.05 47.6457C24.156 46.8357 26.532 46.0797 28.7819 46.0797C31.0319 46.0797 33.4079 46.9977 35.5139 47.8257C36.2159 48.0957 37.1879 48.4737 37.9979 48.7077C36.9359 44.3337 32.1659 42.8037 28.7999 42.8037Z" fill="url(#paint8_radial_2984:131)"/>
<path d="M11.0885 15.2457C11.1605 16.3977 12.4385 17.0457 14.5804 16.9377C16.3984 16.8297 20.3404 15.6057 22.8964 11.9157C23.3644 11.2317 22.5724 10.9257 22.0864 11.3757C20.4664 12.9057 16.0384 15.0117 12.4745 14.8137C11.0525 14.7417 11.0885 15.2457 11.0885 15.2457Z" fill="url(#paint9_linear_2984:131)"/>
<path d="M17.4423 20.2683C17.4423 20.2683 22.6443 19.9983 24.6962 23.3643C24.8222 23.5803 24.9122 23.8143 24.9482 24.0483C25.0202 24.5343 24.6422 25.0923 23.6523 24.7683C17.5323 22.7343 14.4003 24.2283 12.0243 25.3083C11.1063 25.7223 10.0803 24.8403 10.4223 24.0843C12.1143 20.2683 17.4423 20.2683 17.4423 20.2683Z" fill="url(#paint10_radial_2984:131)"/>
<path d="M17.4421 20.2683C17.4421 20.2683 22.6441 19.9983 24.696 23.3643C24.768 23.4903 24.84 23.6163 24.876 23.7603C21.7801 21.1863 17.5321 21.4203 17.5321 21.4203C17.5321 21.4203 13.5721 21.2043 10.6201 23.6883C12.4921 20.2683 17.4421 20.2683 17.4421 20.2683Z" fill="url(#paint11_linear_2984:131)"/>
<path d="M46.5122 15.2457C46.4402 16.3977 45.1622 17.0457 43.0202 16.9377C41.2022 16.8297 37.2602 15.6057 34.7042 11.9157C34.2362 11.2317 35.0282 10.9257 35.5142 11.3757C37.1342 12.9057 41.5622 15.0117 45.1262 14.8137C46.5482 14.7417 46.5122 15.2457 46.5122 15.2457Z" fill="url(#paint12_linear_2984:131)"/>
<path d="M40.1581 20.2683C40.1581 20.2683 34.9561 19.9983 32.9041 23.3643C32.7781 23.5803 32.6881 23.8143 32.6521 24.0483C32.5801 24.5343 32.9581 25.0923 33.9481 24.7683C40.0681 22.7343 43.2 24.2283 45.576 25.3083C46.494 25.7223 47.52 24.8403 47.178 24.0843C45.486 20.2683 40.1581 20.2683 40.1581 20.2683Z" fill="url(#paint13_radial_2984:131)"/>
<path d="M40.1581 20.2683C40.1581 20.2683 34.9561 19.9983 32.9041 23.3643C32.8321 23.4903 32.7601 23.6163 32.7241 23.7603C35.8201 21.1863 40.0681 21.4203 40.0681 21.4203C40.0681 21.4203 44.028 21.2043 46.98 23.6883C45.108 20.2683 40.1581 20.2683 40.1581 20.2683Z" fill="url(#paint14_linear_2984:131)"/>
<path d="M7.50612 55.6741C6.15612 25.0742 11.4481 24.9302 12.7981 24.2103C15.1921 22.9143 19.3861 22.4643 19.2061 23.8143C19.0081 25.3262 11.1061 26.7842 14.6161 55.6741" fill="url(#paint15_linear_2984:131)"/>
<path opacity="0.75" d="M13.3204 53.0993C12.7444 52.7213 12.0064 52.6673 11.3944 52.9913C11.3944 52.9913 11.3944 52.9913 11.3764 52.9913C8.64045 54.3953 8.44245 51.7493 5.81447 51.7133C3.56448 51.6773 -1.4755 54.0713 0.774492 55.6373C2.48448 56.8433 4.46447 55.5113 5.72447 56.2493C8.15445 57.6533 8.01046 58.0853 10.0624 57.4193C13.9684 56.1413 13.1044 57.6353 15.9124 58.1573C17.9464 58.5353 20.3584 57.8513 21.4924 56.6993C18.5764 55.9253 15.8224 54.7013 13.3204 53.0993Z" fill="url(#paint16_linear_2984:131)"/>
<path opacity="0.65" d="M7.50612 55.6741C6.15612 25.0742 11.4481 24.9302 12.7981 24.2103C15.1921 22.9143 19.3861 22.4643 19.2061 23.8143C19.0081 25.3262 11.1061 26.7842 14.6161 55.6741" fill="url(#paint17_linear_2984:131)"/>
<path opacity="0.75" d="M7.50612 55.6741C6.15612 25.0742 11.4481 24.9302 12.7981 24.2103C15.1921 22.9143 19.3861 22.4643 19.2061 23.8143C19.0081 25.3262 11.1061 26.7842 14.6161 55.6741" fill="url(#paint18_linear_2984:131)"/>
<path d="M7.50612 55.6741C6.15612 25.0742 11.4481 24.9302 12.7981 24.2103C15.1921 22.9143 19.3861 22.4643 19.2061 23.8143C19.0081 25.3262 11.1061 26.7842 14.6161 55.6741" fill="url(#paint19_linear_2984:131)"/>
<path opacity="0.75" d="M44.2804 53.1C44.8563 52.722 45.5943 52.668 46.2063 52.992C46.2063 52.992 46.2063 52.992 46.2243 52.992C48.9603 54.396 49.2663 50.976 51.7863 51.714C54.0543 52.38 59.0763 54.072 56.8263 55.638C55.1163 56.844 53.1363 55.512 51.8763 56.25C49.4463 57.654 49.5903 58.086 47.5383 57.42C43.6324 56.142 44.4964 57.636 41.6884 58.158C39.6544 58.536 37.2424 57.852 36.1084 56.7C39.0244 55.926 41.7784 54.702 44.2804 53.1Z" fill="url(#paint20_linear_2984:131)"/>
<path d="M45.1624 52.5059C45.5044 52.6499 45.8463 52.8119 46.2243 52.9919C48.9603 54.3958 49.1583 51.7139 51.7863 51.7139C54.2163 51.7139 59.0763 54.0719 56.8263 55.6378C55.1163 56.8438 53.1363 55.5118 51.8763 56.2498C49.4463 57.6538 49.5903 58.0858 47.5383 57.4198C43.6324 56.1418 44.4964 57.6358 41.6884 58.1578C39.6544 58.5358 37.2424 57.8518 36.1084 56.6998C39.3844 55.8358 42.4444 54.3959 45.1624 52.5059Z" fill="url(#paint21_linear_2984:131)"/>
<path d="M38.394 23.8138C37.44 22.8598 42.462 23.2378 44.748 24.7318C45.936 25.5058 50.5079 26.0458 48.2039 50.0937C45.7019 52.3977 42.786 54.2517 39.6 55.5477C46.6019 38.7538 39.762 25.1818 38.394 23.8138Z" fill="url(#paint22_linear_2984:131)"/>
<path d="M50.0942 55.6741C51.4442 25.0742 46.1523 24.9302 44.8023 24.2103C42.4083 22.9143 38.2143 22.4643 38.3943 23.8143C38.5923 25.3262 46.4943 26.7842 42.9843 55.6741" fill="url(#paint23_linear_2984:131)"/>
<path opacity="0.75" d="M44.2804 53.0993C44.8564 52.7213 45.5943 52.6673 46.2063 52.9913C46.2063 52.9913 46.2063 52.9913 46.2243 52.9913C48.9603 54.3953 49.1583 51.7493 51.7863 51.7133C54.0363 51.6773 59.0763 54.0713 56.8263 55.6373C55.1163 56.8433 53.1363 55.5113 51.8763 56.2493C49.4463 57.6533 49.5903 58.0853 47.5383 57.4193C43.6324 56.1413 44.4964 57.6353 41.6884 58.1573C39.6544 58.5353 37.2424 57.8513 36.1084 56.6993C39.0244 55.9253 41.7784 54.7013 44.2804 53.0993Z" fill="url(#paint24_linear_2984:131)"/>
<path opacity="0.65" d="M50.0942 55.6741C51.4442 25.0742 46.1523 24.9302 44.8023 24.2103C42.4083 22.9143 38.2143 22.4643 38.3943 23.8143C38.5923 25.3262 46.4943 26.7842 42.9843 55.6741" fill="url(#paint25_linear_2984:131)"/>
<path opacity="0.75" d="M50.0942 55.6741C51.4442 25.0742 46.1523 24.9302 44.8023 24.2103C42.4083 22.9143 38.2143 22.4643 38.3943 23.8143C38.5923 25.3262 46.4943 26.7842 42.9843 55.6741" fill="url(#paint26_linear_2984:131)"/>
<path d="M50.0942 55.6741C51.4442 25.0742 46.1523 24.9302 44.8023 24.2103C42.4083 22.9143 38.2143 22.4643 38.3943 23.8143C38.5923 25.3262 46.4943 26.7842 42.9843 55.6741" fill="url(#paint27_linear_2984:131)"/>
<path opacity="0.5" d="M57.6 28.7999C57.6 44.7118 44.7121 57.5097 28.8001 57.5997C12.9962 57.6717 0.0722982 44.7658 0.000298554 28.7999C-0.0717011 12.8879 12.8882 0 28.8001 0C44.7121 0 57.6 12.8879 57.6 28.7999Z" fill="url(#paint28_radial_2984:131)"/>
<defs>
<linearGradient id="paint0_linear_2984:131" x1="17.7969" y1="55.0021" x2="9.01136" y2="54.8936" gradientUnits="userSpaceOnUse">
<stop stop-color="#3640FF" stop-opacity="0.5"/>
<stop offset="0.0308253" stop-color="#3444FD" stop-opacity="0.4846"/>
<stop offset="0.469" stop-color="#1872E8" stop-opacity="0.2655"/>
<stop offset="0.8064" stop-color="#068EDB" stop-opacity="0.0968231"/>
<stop offset="1" stop-color="#0099D6" stop-opacity="0"/>
</linearGradient>
<linearGradient id="paint1_linear_2984:131" x1="10.33" y1="50.8852" x2="10.821" y2="55.4178" gradientUnits="userSpaceOnUse">
<stop stop-color="#B0E9FF"/>
<stop offset="0.2885" stop-color="#7BD9FF"/>
<stop offset="0.6184" stop-color="#45C9FE"/>
<stop offset="0.8656" stop-color="#24BFFE"/>
<stop offset="1" stop-color="#17BBFE"/>
</linearGradient>
<radialGradient id="paint2_radial_2984:131" cx="0" cy="0" r="1" gradientUnits="userSpaceOnUse" gradientTransform="translate(23.1343 17.1282) scale(34.7433)">
<stop stop-color="#FFE030"/>
<stop offset="1" stop-color="#FFB92E"/>
</radialGradient>
<radialGradient id="paint3_radial_2984:131" cx="0" cy="0" r="1" gradientUnits="userSpaceOnUse" gradientTransform="translate(23.1338 17.1284) scale(27.3343)">
<stop stop-color="#FFEA5F"/>
<stop offset="1" stop-color="#FFBC47" stop-opacity="0"/>
</radialGradient>
<linearGradient id="paint4_linear_2984:131" x1="26.07" y1="39.7216" x2="0.698585" y2="38.6971" gradientUnits="userSpaceOnUse">
<stop stop-color="#FF9D00" stop-opacity="0"/>
<stop offset="1" stop-color="#FF8000"/>
</linearGradient>
<radialGradient id="paint5_radial_2984:131" cx="0" cy="0" r="1" gradientUnits="userSpaceOnUse" gradientTransform="translate(27.8018 41.0832) scale(7.67273)">
<stop offset="0.00132565" stop-color="#7A4400"/>
<stop offset="1" stop-color="#643800"/>
</radialGradient>
<linearGradient id="paint6_linear_2984:131" x1="18.0767" y1="36.5432" x2="39.5263" y2="36.5432" gradientUnits="userSpaceOnUse">
<stop offset="0.00132565" stop-color="#3C2200"/>
<stop offset="1" stop-color="#512D00"/>
</linearGradient>
<radialGradient id="paint7_radial_2984:131" cx="0" cy="0" r="1" gradientUnits="userSpaceOnUse" gradientTransform="translate(28.5794 35.9001) scale(7.57581)">
<stop offset="0.00132565" stop-color="white"/>
<stop offset="1" stop-color="#A9BCBE"/>
</radialGradient>
<radialGradient id="paint8_radial_2984:131" cx="0" cy="0" r="1" gradientUnits="userSpaceOnUse" gradientTransform="translate(28.8032 45.1418) scale(8.18614 2.08683)">
<stop stop-color="#FF0000"/>
<stop offset="1" stop-color="#C20000"/>
</radialGradient>
<linearGradient id="paint9_linear_2984:131" x1="17.1844" y1="18.379" x2="17.0944" y2="14.4491" gradientUnits="userSpaceOnUse">
<stop offset="0.00132565" stop-color="#3C2200"/>
<stop offset="1" stop-color="#7A4400"/>
</linearGradient>
<radialGradient id="paint10_radial_2984:131" cx="0" cy="0" r="1" gradientUnits="userSpaceOnUse" gradientTransform="translate(17.5366 22.7242) rotate(-2.88189) scale(5.56722 2.47381)">
<stop offset="0.00132565" stop-color="#7A4400"/>
<stop offset="1" stop-color="#643800"/>
</radialGradient>
<linearGradient id="paint11_linear_2984:131" x1="17.7445" y1="16.5881" x2="17.7445" y2="23.8323" gradientUnits="userSpaceOnUse">
<stop offset="0.00132565" stop-color="#3C2200"/>
<stop offset="1" stop-color="#512D00"/>
</linearGradient>
<linearGradient id="paint12_linear_2984:131" x1="40.4166" y1="18.379" x2="40.5066" y2="14.4491" gradientUnits="userSpaceOnUse">
<stop offset="0.00132565" stop-color="#3C2200"/>
<stop offset="1" stop-color="#7A4400"/>
</linearGradient>
<radialGradient id="paint13_radial_2984:131" cx="0" cy="0" r="1" gradientUnits="userSpaceOnUse" gradientTransform="translate(40.0595 22.7244) rotate(-177.118) scale(5.56722 2.47381)">
<stop offset="0.00132565" stop-color="#7A4400"/>
<stop offset="1" stop-color="#643800"/>
</radialGradient>
<linearGradient id="paint14_linear_2984:131" x1="39.856" y1="16.5881" x2="39.856" y2="23.8323" gradientUnits="userSpaceOnUse">
<stop offset="0.00132565" stop-color="#3C2200"/>
<stop offset="1" stop-color="#512D00"/>
</linearGradient>
<linearGradient id="paint15_linear_2984:131" x1="10.8895" y1="12.4221" x2="15.0392" y2="58.1828" gradientUnits="userSpaceOnUse">
<stop stop-color="#B0E9FF"/>
<stop offset="0.3331" stop-color="#B0E9FF"/>
<stop offset="0.4126" stop-color="#7BD9FF"/>
<stop offset="0.5034" stop-color="#45C9FE"/>
<stop offset="0.5715" stop-color="#24BFFE"/>
<stop offset="0.6085" stop-color="#17BBFE"/>
<stop offset="0.8891" stop-color="#17BBFE"/>
</linearGradient>
<linearGradient id="paint16_linear_2984:131" x1="14.9061" y1="57.1671" x2="7.25613" y2="54.4671" gradientUnits="userSpaceOnUse">
<stop stop-color="#3640FF" stop-opacity="0.5"/>
<stop offset="0.0308253" stop-color="#3444FD" stop-opacity="0.4846"/>
<stop offset="0.469" stop-color="#1872E8" stop-opacity="0.2655"/>
<stop offset="0.8064" stop-color="#068EDB" stop-opacity="0.0968231"/>
<stop offset="1" stop-color="#0099D6" stop-opacity="0"/>
</linearGradient>
<linearGradient id="paint17_linear_2984:131" x1="14.9957" y1="26.5776" x2="11.6357" y2="43.0175" gradientUnits="userSpaceOnUse">
<stop stop-color="white" stop-opacity="0"/>
<stop offset="0.5" stop-color="white" stop-opacity="0.5"/>
<stop offset="1" stop-color="white" stop-opacity="0"/>
</linearGradient>
<linearGradient id="paint18_linear_2984:131" x1="13.7711" y1="45.964" x2="14.3111" y2="54.2439" gradientUnits="userSpaceOnUse">
<stop stop-color="white" stop-opacity="0"/>
<stop offset="0.5" stop-color="white" stop-opacity="0.5"/>
<stop offset="1" stop-color="white" stop-opacity="0"/>
</linearGradient>
<linearGradient id="paint19_linear_2984:131" x1="13.2527" y1="49.9697" x2="13.2527" y2="20.9299" gradientUnits="userSpaceOnUse">
<stop stop-color="#17BBFE" stop-opacity="0"/>
<stop offset="0.5" stop-color="#0099D6" stop-opacity="0.5"/>
<stop offset="1" stop-color="#0099D6" stop-opacity="0"/>
</linearGradient>
<linearGradient id="paint20_linear_2984:131" x1="39.8045" y1="55.0021" x2="48.59" y2="54.8936" gradientUnits="userSpaceOnUse">
<stop stop-color="#3640FF" stop-opacity="0.5"/>
<stop offset="0.0308253" stop-color="#3444FD" stop-opacity="0.4846"/>
<stop offset="0.469" stop-color="#1872E8" stop-opacity="0.2655"/>
<stop offset="0.8064" stop-color="#068EDB" stop-opacity="0.0968231"/>
<stop offset="1" stop-color="#0099D6" stop-opacity="0"/>
</linearGradient>
<linearGradient id="paint21_linear_2984:131" x1="47.2714" y1="50.8852" x2="46.7804" y2="55.4179" gradientUnits="userSpaceOnUse">
<stop stop-color="#B0E9FF"/>
<stop offset="0.2885" stop-color="#7BD9FF"/>
<stop offset="0.6184" stop-color="#45C9FE"/>
<stop offset="0.8656" stop-color="#24BFFE"/>
<stop offset="1" stop-color="#17BBFE"/>
</linearGradient>
<linearGradient id="paint22_linear_2984:131" x1="31.531" y1="39.7216" x2="56.9024" y2="38.6971" gradientUnits="userSpaceOnUse">
<stop stop-color="#FF9D00" stop-opacity="0"/>
<stop offset="1" stop-color="#FF8000"/>
</linearGradient>
<linearGradient id="paint23_linear_2984:131" x1="46.7116" y1="12.4221" x2="42.5618" y2="58.1828" gradientUnits="userSpaceOnUse">
<stop stop-color="#B0E9FF"/>
<stop offset="0.3331" stop-color="#B0E9FF"/>
<stop offset="0.4126" stop-color="#7BD9FF"/>
<stop offset="0.5034" stop-color="#45C9FE"/>
<stop offset="0.5715" stop-color="#24BFFE"/>
<stop offset="0.6085" stop-color="#17BBFE"/>
<stop offset="0.8891" stop-color="#17BBFE"/>
</linearGradient>
<linearGradient id="paint24_linear_2984:131" x1="42.6954" y1="57.1671" x2="50.3453" y2="54.4671" gradientUnits="userSpaceOnUse">
<stop stop-color="#3640FF" stop-opacity="0.5"/>
<stop offset="0.0308253" stop-color="#3444FD" stop-opacity="0.4846"/>
<stop offset="0.469" stop-color="#1872E8" stop-opacity="0.2655"/>
<stop offset="0.8064" stop-color="#068EDB" stop-opacity="0.0968231"/>
<stop offset="1" stop-color="#0099D6" stop-opacity="0"/>
</linearGradient>
<linearGradient id="paint25_linear_2984:131" x1="42.6053" y1="26.5776" x2="45.9653" y2="43.0175" gradientUnits="userSpaceOnUse">
<stop stop-color="white" stop-opacity="0"/>
<stop offset="0.5" stop-color="white" stop-opacity="0.5"/>
<stop offset="1" stop-color="white" stop-opacity="0"/>
</linearGradient>
<linearGradient id="paint26_linear_2984:131" x1="43.8299" y1="45.964" x2="43.2899" y2="54.244" gradientUnits="userSpaceOnUse">
<stop stop-color="white" stop-opacity="0"/>
<stop offset="0.5" stop-color="white" stop-opacity="0.5"/>
<stop offset="1" stop-color="white" stop-opacity="0"/>
</linearGradient>
<linearGradient id="paint27_linear_2984:131" x1="44.3483" y1="49.9698" x2="44.3483" y2="20.9299" gradientUnits="userSpaceOnUse">
<stop stop-color="#17BBFE" stop-opacity="0"/>
<stop offset="0.5" stop-color="#0099D6" stop-opacity="0.5"/>
<stop offset="1" stop-color="#0099D6" stop-opacity="0"/>
</linearGradient>
<radialGradient id="paint28_radial_2984:131" cx="0" cy="0" r="1" gradientUnits="userSpaceOnUse" gradientTransform="translate(29.0481 52.2708) rotate(-90) scale(3.83997 11.9972)">
<stop stop-color="#A3541E" stop-opacity="0.5"/>
<stop offset="0.283" stop-color="#B26126" stop-opacity="0.3578"/>
<stop offset="0.8286" stop-color="#DA843C" stop-opacity="0.0836319"/>
<stop offset="0.995" stop-color="#E89043" stop-opacity="0"/>
</radialGradient>
</defs>
</svg>
