<svg width="58" height="58" viewBox="0 0 58 58" fill="none" xmlns="http://www.w3.org/2000/svg">
<path d="M28.8 57.6C44.7058 57.6 57.6 44.7058 57.6 28.8C57.6 12.8942 44.7058 0 28.8 0C12.8942 0 0 12.8942 0 28.8C0 44.7058 12.8942 57.6 28.8 57.6Z" fill="url(#paint0_radial_2984:52)"/>
<path opacity="0.5" d="M28.8 57.6C44.7058 57.6 57.6 44.7058 57.6 28.8C57.6 12.8942 44.7058 0 28.8 0C12.8942 0 0 12.8942 0 28.8C0 44.7058 12.8942 57.6 28.8 57.6Z" fill="url(#paint1_radial_2984:52)"/>
<path d="M28.8 57.6C44.7058 57.6 57.6 44.7058 57.6 28.8C57.6 12.8942 44.7058 0 28.8 0C12.8942 0 0 12.8942 0 28.8C0 44.7058 12.8942 57.6 28.8 57.6Z" fill="url(#paint2_radial_2984:52)"/>
<path d="M28.8 57.6C44.7058 57.6 57.6 44.7058 57.6 28.8C57.6 12.8942 44.7058 0 28.8 0C12.8942 0 0 12.8942 0 28.8C0 44.7058 12.8942 57.6 28.8 57.6Z" fill="url(#paint3_radial_2984:52)"/>
<path d="M48.6541 38.376C48.6721 38.214 48.6901 38.052 48.7081 37.908C48.6721 37.386 48.3481 36.9 47.8261 36.72C47.5561 36.612 47.2681 36.612 46.9801 36.684C41.0941 38.322 34.9741 39.168 28.8001 39.168C22.6261 39.168 16.5061 38.34 10.6201 36.684C10.3501 36.612 10.0441 36.612 9.77409 36.72C9.27009 36.918 8.94609 37.368 8.89209 37.89C8.91009 38.07 8.92809 38.25 8.96409 38.448L9.28809 39.798C9.36009 40.05 9.45009 40.32 9.55809 40.608C11.5741 45.324 16.8301 53.622 28.8181 53.622C40.7881 53.622 46.0441 45.306 48.0781 40.59C48.1681 40.338 48.2581 40.104 48.3121 39.87L48.6541 38.376Z" fill="url(#paint4_radial_2984:52)"/>
<path d="M28.8 52.3083C33.444 52.3083 37.008 50.9763 39.726 49.0863C36.738 47.7003 33.138 46.8003 28.8 46.8003C24.462 46.8003 20.844 47.7003 17.856 49.1043C20.592 50.9943 24.156 52.3083 28.8 52.3083Z" fill="url(#paint5_radial_2984:52)"/>
<path d="M48.312 39.816L48.636 38.43C48.672 38.232 48.69 38.052 48.69 37.89C48.654 37.368 48.312 36.918 47.808 36.72C47.538 36.612 47.25 36.612 46.962 36.684C41.076 38.322 34.956 39.168 28.782 39.168C22.608 39.168 16.488 38.34 10.602 36.684C10.332 36.612 10.026 36.612 9.75602 36.72C9.25202 36.918 8.92802 37.368 8.87402 37.89C8.89202 38.052 8.91002 38.25 8.92802 38.448L9.25202 39.816C9.32402 40.068 9.41402 40.338 9.52202 40.608C10.332 42.516 11.682 45 13.77 47.286C11.808 44.946 14.22 43.668 18.558 44.19C22.878 44.712 28.782 44.73 28.782 44.73C28.782 44.73 34.686 44.712 39.006 44.19C43.326 43.668 45.756 44.964 43.794 47.286C45.9 45 47.232 42.516 48.042 40.608C48.15 40.32 48.24 40.068 48.312 39.816Z" fill="url(#paint6_linear_2984:52)"/>
<path d="M28.8 40.482C22.572 40.482 16.416 39.654 10.458 37.998L10.53 38.808C10.674 40.356 11.808 41.634 13.32 41.976C18.378 43.092 23.562 43.65 28.782 43.65C34.416 43.65 39.996 43.002 45.432 41.706C46.242 41.508 46.836 40.824 46.926 39.996L47.124 38.016C41.184 39.654 35.028 40.482 28.8 40.482Z" fill="url(#paint7_radial_2984:52)"/>
<path d="M17.2085 12.1501C15.2645 13.0321 13.9865 14.7961 13.6265 16.7401C11.9165 15.7141 9.75649 15.4981 7.81249 16.3801C4.6625 17.8021 3.27649 21.5101 4.69849 24.6421C7.83049 31.5721 21.0425 33.1201 21.0425 33.1201C21.0425 33.1201 28.6025 22.1941 25.4705 15.2461C24.0665 12.1321 20.3585 10.7281 17.2085 12.1501Z" fill="url(#paint8_radial_2984:52)"/>
<path opacity="0.5" d="M19.8005 11.5918C25.1645 15.1558 25.2365 22.9678 22.6265 26.3698C19.7465 30.1318 16.7045 30.3478 9.93652 29.7178C14.8505 32.3998 21.0425 33.1198 21.0425 33.1198C21.0425 33.1198 28.6025 22.1938 25.4705 15.2458C24.4445 12.9778 22.1765 11.6098 19.8005 11.5918Z" fill="url(#paint9_radial_2984:52)"/>
<path opacity="0.5" d="M17.2085 12.1501C15.2645 13.0321 13.9865 14.7961 13.6265 16.7401C11.9165 15.7141 9.75649 15.4981 7.81249 16.3801C4.6625 17.8021 3.27649 21.5101 4.69849 24.6421C7.83049 31.5721 21.0425 33.1201 21.0425 33.1201C21.0425 33.1201 28.6025 22.1941 25.4705 15.2461C24.0665 12.1321 20.3585 10.7281 17.2085 12.1501Z" fill="url(#paint10_radial_2984:52)"/>
<path opacity="0.5" d="M17.2085 12.1501C15.2645 13.0321 13.9865 14.7961 13.6265 16.7401C11.9165 15.7141 9.75649 15.4981 7.81249 16.3801C4.6625 17.8021 3.27649 21.5101 4.69849 24.6421C7.83049 31.5721 21.0425 33.1201 21.0425 33.1201C21.0425 33.1201 28.6025 22.1941 25.4705 15.2461C24.0665 12.1321 20.3585 10.7281 17.2085 12.1501Z" fill="url(#paint11_radial_2984:52)"/>
<path opacity="0.24" d="M12.1507 17.2256C13.3207 18.3056 12.8887 20.6996 11.1607 22.5716C9.43265 24.4436 7.09266 25.0736 5.90466 23.9936C4.73466 22.9136 5.16666 20.5196 6.89466 18.6476C8.62266 16.7756 10.9627 16.1456 12.1507 17.2256Z" fill="url(#paint12_radial_2984:52)"/>
<path opacity="0.24" d="M18.6125 12.9962C19.8185 13.5182 20.1245 15.5162 19.2785 17.4602C18.4325 19.3862 16.7765 20.5202 15.5525 19.9982C14.3285 19.4762 14.0405 17.4782 14.8865 15.5342C15.7325 13.6082 17.3885 12.4742 18.6125 12.9962Z" fill="url(#paint13_radial_2984:52)"/>
<path opacity="0.32" d="M18.0005 13.6257C21.2945 13.3017 25.9385 16.2897 23.7065 23.6337C22.3745 28.0257 20.0885 30.9777 15.9665 32.0937C18.8285 32.8857 21.0605 33.1557 21.0605 33.1557C21.0605 33.1557 28.6205 22.2297 25.4885 15.2817C24.0665 12.1317 20.3585 10.7457 17.2265 12.1677C15.2825 13.0497 14.0045 14.8137 13.6445 16.7577C13.6445 16.7577 15.5885 13.8597 18.0005 13.6257Z" fill="url(#paint14_linear_2984:52)"/>
<path d="M50.2201 16.3624C48.2761 15.4804 46.0981 15.6964 44.4061 16.7404C44.0461 14.7784 42.7681 13.0324 40.8241 12.1504C37.6741 10.7464 33.9841 12.1504 32.5621 15.3004C29.4481 22.2304 37.0621 33.1384 37.0621 33.1384C37.0621 33.1384 50.2561 31.5544 53.3701 24.6064C54.7741 21.4744 53.3701 17.7664 50.2201 16.3624Z" fill="url(#paint15_radial_2984:52)"/>
<path opacity="0.5" d="M52.3618 17.9282C53.2618 24.3002 47.4478 29.5382 43.1638 29.8442C38.4298 30.1862 36.2698 28.0442 32.2378 22.5722C33.4798 28.0262 37.0438 33.1562 37.0438 33.1562C37.0438 33.1562 50.2378 31.5722 53.3518 24.6242C54.3958 22.3022 53.9278 19.7102 52.3618 17.9282Z" fill="url(#paint16_radial_2984:52)"/>
<path opacity="0.5" d="M50.2201 16.3624C48.2761 15.4804 46.0981 15.6964 44.4061 16.7404C44.0461 14.7784 42.7681 13.0324 40.8241 12.1504C37.6741 10.7464 33.9841 12.1504 32.5621 15.3004C29.4481 22.2304 37.0621 33.1384 37.0621 33.1384C37.0621 33.1384 50.2561 31.5544 53.3701 24.6064C54.7741 21.4744 53.3701 17.7664 50.2201 16.3624Z" fill="url(#paint17_radial_2984:52)"/>
<path opacity="0.5" d="M50.2201 16.3624C48.2761 15.4804 46.0981 15.6964 44.4061 16.7404C44.0461 14.7784 42.7681 13.0324 40.8241 12.1504C37.6741 10.7464 33.9841 12.1504 32.5621 15.3004C29.4481 22.2304 37.0621 33.1384 37.0621 33.1384C37.0621 33.1384 50.2561 31.5544 53.3701 24.6064C54.7741 21.4744 53.3701 17.7664 50.2201 16.3624Z" fill="url(#paint18_radial_2984:52)"/>
<path opacity="0.24" d="M43.056 15.9306C43.02 17.5326 40.932 18.7926 38.394 18.7386C35.856 18.6846 33.822 17.3526 33.84 15.7506C33.876 14.1486 35.964 12.8886 38.502 12.9426C41.058 12.9966 43.092 14.3286 43.056 15.9306Z" fill="url(#paint19_radial_2984:52)"/>
<path opacity="0.24" d="M50.5259 17.9645C50.9399 19.2245 49.6439 20.7725 47.6459 21.4205C45.6479 22.0685 43.6859 21.5825 43.2719 20.3225C42.8579 19.0625 44.1539 17.5145 46.1519 16.8665C48.1499 16.2005 50.1119 16.7045 50.5259 17.9645Z" fill="url(#paint20_radial_2984:52)"/>
<path opacity="0.32" d="M49.6442 17.9098C52.0742 20.1598 52.9022 25.6138 45.9362 28.8178C41.7602 30.7258 38.0342 30.9778 34.4702 28.6378C35.7662 31.3018 37.0622 33.1558 37.0622 33.1558C37.0622 33.1558 50.2562 31.5718 53.3702 24.6238C54.7742 21.4738 53.3702 17.7838 50.2202 16.3618C48.2762 15.4798 46.0982 15.6958 44.4062 16.7398C44.4062 16.7218 47.8802 16.2718 49.6442 17.9098Z" fill="url(#paint21_linear_2984:52)"/>
<defs>
<radialGradient id="paint0_radial_2984:52" cx="0" cy="0" r="1" gradientUnits="userSpaceOnUse" gradientTransform="translate(23.1335 17.1283) scale(34.7435)">
<stop stop-color="#FFE030"/>
<stop offset="1" stop-color="#FFB92E"/>
</radialGradient>
<radialGradient id="paint1_radial_2984:52" cx="0" cy="0" r="1" gradientUnits="userSpaceOnUse" gradientTransform="translate(23.1335 17.1283) scale(27.3342)">
<stop stop-color="#FFEA5F"/>
<stop offset="1" stop-color="#FFBC47" stop-opacity="0"/>
</radialGradient>
<radialGradient id="paint2_radial_2984:52" cx="0" cy="0" r="1" gradientUnits="userSpaceOnUse" gradientTransform="translate(12.8121 29.0527) rotate(32.7366) scale(15.2484 11.1297)">
<stop stop-color="#EB672A" stop-opacity="0.5"/>
<stop offset="0.4286" stop-color="#DC641B" stop-opacity="0.2846"/>
<stop offset="0.995" stop-color="#C25E00" stop-opacity="0"/>
</radialGradient>
<radialGradient id="paint3_radial_2984:52" cx="0" cy="0" r="1" gradientUnits="userSpaceOnUse" gradientTransform="translate(44.8049 29.0292) rotate(147.263) scale(15.2484 11.1297)">
<stop stop-color="#EB672A" stop-opacity="0.5"/>
<stop offset="0.4286" stop-color="#DC641B" stop-opacity="0.2846"/>
<stop offset="0.995" stop-color="#C25E00" stop-opacity="0"/>
</radialGradient>
<radialGradient id="paint4_radial_2984:52" cx="0" cy="0" r="1" gradientUnits="userSpaceOnUse" gradientTransform="translate(28.7972 45.1313) scale(15.3027)">
<stop offset="0.00132565" stop-color="#7A4400"/>
<stop offset="1" stop-color="#643800"/>
</radialGradient>
<radialGradient id="paint5_radial_2984:52" cx="0" cy="0" r="1" gradientUnits="userSpaceOnUse" gradientTransform="translate(29.0191 50.2197) scale(12.1753 3.68133)">
<stop offset="0.2479" stop-color="#FF0000"/>
<stop offset="1" stop-color="#C20000"/>
</radialGradient>
<linearGradient id="paint6_linear_2984:52" x1="48.4824" y1="41.9659" x2="9.35693" y2="41.9659" gradientUnits="userSpaceOnUse">
<stop offset="0.00132565" stop-color="#3C2200"/>
<stop offset="0.5" stop-color="#512D00"/>
<stop offset="1" stop-color="#3C2200"/>
</linearGradient>
<radialGradient id="paint7_radial_2984:52" cx="0" cy="0" r="1" gradientUnits="userSpaceOnUse" gradientTransform="translate(28.7984 40.8225) scale(33.5633)">
<stop offset="0.00132565" stop-color="white"/>
<stop offset="1" stop-color="#A9BCBE"/>
</radialGradient>
<radialGradient id="paint8_radial_2984:52" cx="0" cy="0" r="1" gradientUnits="userSpaceOnUse" gradientTransform="translate(11.9387 20.8476) rotate(-53.7393) scale(17.8371 14.1474)">
<stop offset="0.2479" stop-color="#FF0000"/>
<stop offset="0.8639" stop-color="#C20000"/>
</radialGradient>
<radialGradient id="paint9_radial_2984:52" cx="0" cy="0" r="1" gradientUnits="userSpaceOnUse" gradientTransform="translate(11.8899 19.6687) rotate(-53.7394) scale(15.3571 12.1805)">
<stop offset="0.2479" stop-color="#FF0000"/>
<stop offset="1" stop-color="#C20000"/>
</radialGradient>
<radialGradient id="paint10_radial_2984:52" cx="0" cy="0" r="1" gradientUnits="userSpaceOnUse" gradientTransform="translate(11.9387 20.8476) rotate(-53.7393) scale(17.8371 14.1474)">
<stop stop-color="white" stop-opacity="0.25"/>
<stop offset="1" stop-color="white" stop-opacity="0"/>
</radialGradient>
<radialGradient id="paint11_radial_2984:52" cx="0" cy="0" r="1" gradientUnits="userSpaceOnUse" gradientTransform="translate(20.2672 23.7605) rotate(-50.6229) scale(13.0196 6.43262)">
<stop stop-color="#BD2719" stop-opacity="0.25"/>
<stop offset="1" stop-color="#BD2719" stop-opacity="0"/>
</radialGradient>
<radialGradient id="paint12_radial_2984:52" cx="0" cy="0" r="1" gradientUnits="userSpaceOnUse" gradientTransform="translate(9.0256 20.6378) rotate(-46.0208) scale(4.62821 2.87503)">
<stop stop-color="white"/>
<stop offset="1" stop-color="white" stop-opacity="0"/>
</radialGradient>
<radialGradient id="paint13_radial_2984:52" cx="0" cy="0" r="1" gradientUnits="userSpaceOnUse" gradientTransform="translate(17.0811 16.5177) rotate(-65.0908) scale(3.83188 2.38047)">
<stop stop-color="white"/>
<stop offset="1" stop-color="white" stop-opacity="0"/>
</radialGradient>
<linearGradient id="paint14_linear_2984:52" x1="26.5524" y1="39.5825" x2="16.2962" y2="11.539" gradientUnits="userSpaceOnUse">
<stop stop-color="#860805"/>
<stop offset="1" stop-color="#BD2719" stop-opacity="0"/>
</linearGradient>
<radialGradient id="paint15_radial_2984:52" cx="0" cy="0" r="1" gradientUnits="userSpaceOnUse" gradientTransform="translate(40.1716 18.1704) rotate(-5.26571) scale(17.837 14.1477)">
<stop offset="0.2479" stop-color="#FF0000"/>
<stop offset="0.8639" stop-color="#C20000"/>
</radialGradient>
<radialGradient id="paint16_radial_2984:52" cx="0" cy="0" r="1" gradientUnits="userSpaceOnUse" gradientTransform="translate(41.0214 17.3524) rotate(-5.26571) scale(15.357 12.1807)">
<stop offset="0.2479" stop-color="#FF0000"/>
<stop offset="1" stop-color="#C20000"/>
</radialGradient>
<radialGradient id="paint17_radial_2984:52" cx="0" cy="0" r="1" gradientUnits="userSpaceOnUse" gradientTransform="translate(40.1716 18.1704) rotate(-5.26571) scale(17.837 14.1477)">
<stop stop-color="white" stop-opacity="0.25"/>
<stop offset="1" stop-color="white" stop-opacity="0"/>
</radialGradient>
<radialGradient id="paint18_radial_2984:52" cx="0" cy="0" r="1" gradientUnits="userSpaceOnUse" gradientTransform="translate(43.5459 26.3155) rotate(-2.1516) scale(13.0199 6.43271)">
<stop stop-color="#BD2719" stop-opacity="0.25"/>
<stop offset="1" stop-color="#BD2719" stop-opacity="0"/>
</radialGradient>
<radialGradient id="paint19_radial_2984:52" cx="0" cy="0" r="1" gradientUnits="userSpaceOnUse" gradientTransform="translate(38.4573 15.862) rotate(2.44968) scale(4.62829 2.87534)">
<stop stop-color="white"/>
<stop offset="1" stop-color="white" stop-opacity="0"/>
</radialGradient>
<radialGradient id="paint20_radial_2984:52" cx="0" cy="0" r="1" gradientUnits="userSpaceOnUse" gradientTransform="translate(46.9232 19.1294) rotate(-16.6196) scale(3.832 2.3805)">
<stop stop-color="white"/>
<stop offset="1" stop-color="white" stop-opacity="0"/>
</radialGradient>
<linearGradient id="paint21_linear_2984:52" x1="35.8903" y1="41.5288" x2="50.0846" y2="15.2597" gradientUnits="userSpaceOnUse">
<stop stop-color="#860805"/>
<stop offset="1" stop-color="#BD2719" stop-opacity="0"/>
</linearGradient>
</defs>
</svg>
