<svg width="66" height="58" viewBox="0 0 66 58" fill="none" xmlns="http://www.w3.org/2000/svg">
<path d="M32.5261 57.6C48.4319 57.6 61.3261 44.7058 61.3261 28.8C61.3261 12.8942 48.4319 0 32.5261 0C16.6203 0 3.72607 12.8942 3.72607 28.8C3.72607 44.7058 16.6203 57.6 32.5261 57.6Z" fill="url(#paint0_radial_2984:287)"/>
<path opacity="0.5" d="M32.5261 57.6C48.4319 57.6 61.3261 44.7058 61.3261 28.8C61.3261 12.8942 48.4319 0 32.5261 0C16.6203 0 3.72607 12.8942 3.72607 28.8C3.72607 44.7058 16.6203 57.6 32.5261 57.6Z" fill="url(#paint1_radial_2984:287)"/>
<path d="M41.724 15.8043C41.922 14.6703 43.272 14.1663 45.378 14.5263C47.178 14.8323 50.958 16.5063 53.082 20.4663C53.478 21.2043 52.632 21.4203 52.218 20.9163C50.796 19.2063 46.62 16.6143 43.056 16.3983C41.616 16.3083 41.724 15.8043 41.724 15.8043Z" fill="url(#paint2_linear_2984:287)"/>
<path d="M44.8201 22.014C44.8201 22.014 49.8421 22.518 51.2461 26.316C51.3361 26.55 51.3901 26.802 51.3721 27.054C51.3721 27.558 50.9041 28.098 50.0041 27.612C44.4961 24.57 41.3101 26.01 38.9341 27C38.0161 27.396 37.1881 26.46 37.4761 25.632C37.5481 25.398 37.6201 25.146 37.7461 24.93C39.8161 21.474 44.8201 22.014 44.8201 22.014Z" fill="url(#paint3_radial_2984:287)"/>
<path d="M44.7124 23.202C44.7124 23.202 48.7984 23.616 51.3544 26.748C51.3364 26.604 51.3004 26.46 51.2464 26.316C49.8424 22.518 44.8204 22.014 44.8204 22.014C44.8204 22.014 39.7984 21.474 37.7464 24.93C37.6744 25.056 37.6024 25.2 37.5664 25.344C40.6264 22.77 44.7124 23.202 44.7124 23.202Z" fill="url(#paint4_linear_2984:287)"/>
<path d="M51.966 33.6776C51.75 33.5876 51.516 33.5876 51.3001 33.6416C45.2161 35.3696 38.916 36.2516 32.5261 36.2516C26.1541 36.2516 19.8361 35.3696 13.7521 33.6416C13.5361 33.5696 13.3021 33.5876 13.0861 33.6776C12.4201 33.9476 11.3941 34.9376 12.7621 38.7356C14.8321 43.5776 20.2141 52.0916 32.544 52.0916C44.82 52.0916 50.238 43.5596 52.308 38.7176C53.658 34.9376 52.632 33.9476 51.966 33.6776Z" fill="url(#paint5_radial_2984:287)"/>
<path d="M23.3281 15.8043C23.1301 14.6703 21.7801 14.1663 19.6741 14.5263C17.8741 14.8323 14.0941 16.5063 11.9701 20.4663C11.5741 21.2043 12.4201 21.4203 12.8341 20.9163C14.2561 19.2063 18.4321 16.6143 21.9961 16.3983C23.4181 16.3083 23.3281 15.8043 23.3281 15.8043Z" fill="url(#paint6_linear_2984:287)"/>
<path d="M20.2137 22.014C20.2137 22.014 15.1917 22.518 13.7877 26.316C13.6977 26.55 13.6437 26.802 13.6617 27.054C13.6617 27.558 14.1297 28.098 15.0297 27.612C20.5377 24.57 23.7237 26.01 26.0997 27C27.0177 27.396 27.8457 26.46 27.5577 25.632C27.4857 25.398 27.4137 25.146 27.2877 24.93C25.2357 21.474 20.2137 22.014 20.2137 22.014Z" fill="url(#paint7_radial_2984:287)"/>
<path d="M20.3217 23.202C20.3217 23.202 16.2357 23.616 13.6797 26.748C13.6977 26.604 13.7337 26.46 13.7877 26.316C15.1917 22.518 20.2137 22.014 20.2137 22.014C20.2137 22.014 25.2357 21.474 27.2877 24.93C27.3597 25.056 27.4317 25.2 27.4677 25.344C24.4077 22.77 20.3217 23.202 20.3217 23.202Z" fill="url(#paint8_linear_2984:287)"/>
<path d="M10.5839 39.2398C10.6919 43.0198 7.28987 45.1798 4.39187 44.6758C1.51187 44.1718 -0.77411 41.2918 0.269889 37.8358C2.66389 29.9518 13.3199 28.5298 13.3199 28.5298C13.3199 28.5298 10.4399 34.1458 10.5839 39.2398Z" fill="url(#paint9_linear_2984:287)"/>
<path d="M6.76788 38.5199C4.48188 41.4539 -0.576115 39.8158 1.00788 36.0538C0.719885 36.6118 0.467889 37.2058 0.269889 37.8538C-0.77411 41.3098 1.51187 44.2078 4.39187 44.6938C7.27187 45.1978 10.6739 43.0379 10.5839 39.2579C10.4579 34.1639 13.3199 28.5479 13.3199 28.5479C7.54189 34.3079 7.88388 37.0799 6.76788 38.5199Z" fill="url(#paint10_linear_2984:287)"/>
<path d="M9.5941 36.7558C8.5141 42.8578 1.2061 42.7678 0.0721022 38.6638C-0.413898 41.7418 1.7281 44.2258 4.3921 44.6758C7.2721 45.1798 10.6741 43.0198 10.5841 39.2398C10.4581 34.1458 13.3201 28.5298 13.3201 28.5298C13.3201 28.5298 10.4761 31.7518 9.5941 36.7558Z" fill="url(#paint11_linear_2984:287)"/>
<path d="M8.56799 40.3018C5.93999 44.2258 1.242 42.4258 0 39.5278C0 40.8598 0.503991 42.0478 1.29599 42.9658C5.93999 46.5298 10.44 42.0658 10.566 39.4738C10.566 39.4018 10.566 39.3298 10.566 39.2578C10.566 39.1678 10.566 39.0779 10.566 38.9699C10.548 33.9479 13.302 28.5479 13.302 28.5479C9.26998 34.3438 11.79 35.4958 8.56799 40.3018Z" fill="url(#paint12_linear_2984:287)"/>
<path opacity="0.75" d="M13.32 28.5298C13.32 28.5298 5.70604 32.3998 5.04004 36.0718C4.37404 39.7438 0.810042 38.0878 1.62004 36.1258C3.06004 32.6878 8.82004 29.4298 13.32 28.5298Z" fill="url(#paint13_linear_2984:287)"/>
<path d="M32.5258 50.7604C37.6198 50.7604 41.4538 49.1943 44.3158 47.0523C41.1658 45.6303 37.2958 44.6943 32.5258 44.6943C27.7558 44.6943 23.8678 45.6303 20.7178 47.0523C23.5798 49.1943 27.4138 50.7604 32.5258 50.7604Z" fill="url(#paint14_radial_2984:287)"/>
<path d="M54.4679 39.2398C54.3599 43.0198 57.7619 45.1798 60.6599 44.6758C63.5399 44.1718 65.8259 41.2918 64.7819 37.8358C62.3879 29.9518 51.7319 28.5298 51.7319 28.5298C51.7319 28.5298 54.5939 34.1458 54.4679 39.2398Z" fill="url(#paint15_linear_2984:287)"/>
<path d="M58.2839 38.5199C60.5699 41.4539 65.6279 39.8158 64.0439 36.0538C64.3319 36.6118 64.5839 37.2058 64.7819 37.8538C65.8259 41.3098 63.5399 44.2078 60.6599 44.6938C57.7799 45.1978 54.3779 43.0379 54.4679 39.2579C54.5939 34.1639 51.7319 28.5479 51.7319 28.5479C57.4919 34.3079 57.1499 37.0799 58.2839 38.5199Z" fill="url(#paint16_linear_2984:287)"/>
<path d="M55.4399 36.7558C56.5199 42.8578 63.8278 42.7678 64.9618 38.6638C65.4478 41.7418 63.3058 44.2258 60.6418 44.6758C57.7619 45.1798 54.3599 43.0198 54.4499 39.2398C54.5759 34.1458 51.7139 28.5298 51.7139 28.5298C51.7139 28.5298 54.5579 31.7518 55.4399 36.7558Z" fill="url(#paint17_linear_2984:287)"/>
<path d="M56.4659 40.3018C59.0939 44.2258 63.7919 42.4258 65.0339 39.5278C65.0339 40.8598 64.5299 42.0478 63.7379 42.9658C59.0939 46.5298 54.5939 42.0658 54.4679 39.4738C54.4679 39.4018 54.4679 39.3298 54.4679 39.2578C54.4679 39.1678 54.4679 39.0779 54.4679 38.9699C54.4859 33.9479 51.7319 28.5479 51.7319 28.5479C55.7819 34.3438 53.2619 35.4958 56.4659 40.3018Z" fill="url(#paint18_linear_2984:287)"/>
<path opacity="0.75" d="M51.7319 28.5298C51.7319 28.5298 59.3459 32.3998 60.0119 36.0718C60.6779 39.7258 64.2419 38.0878 63.4319 36.1258C61.9919 32.6878 56.2319 29.4298 51.7319 28.5298Z" fill="url(#paint19_linear_2984:287)"/>
<path d="M13.5721 33.6059C13.5361 33.5879 13.4821 33.5879 13.4461 33.5879C13.0322 33.6239 11.0521 34.0379 12.7441 38.7359C13.5721 40.6979 14.9582 43.2359 17.1182 45.5939C15.1022 43.1999 17.5861 41.8679 22.0321 42.4079C26.4781 42.9479 32.5261 42.9479 32.5261 42.9479V36.2519C26.0821 36.2699 19.7101 35.3699 13.5721 33.6059Z" fill="url(#paint20_linear_2984:287)"/>
<path d="M51.4618 33.6059C51.4978 33.5879 51.5518 33.5879 51.5878 33.5879C52.0018 33.6239 53.9818 34.0379 52.2898 38.7359C51.4618 40.6979 50.0758 43.2359 47.9158 45.5939C49.9318 43.1999 47.4478 41.8679 43.0018 42.4079C38.5558 42.9479 32.5078 42.9479 32.5078 42.9479V36.2519C38.9518 36.2699 45.3238 35.3699 51.4618 33.6059Z" fill="url(#paint21_linear_2984:287)"/>
<path d="M49.6258 39.8522C50.4538 39.6542 51.0838 38.9522 51.1558 38.0882L51.4618 35.0103C45.3238 36.7383 38.9698 37.6202 32.5258 37.6202C26.0998 37.6202 19.7278 36.7383 13.5898 35.0103L13.8958 38.0882C13.9858 38.9342 14.5978 39.6542 15.4258 39.8522C21.0058 41.1842 26.7478 41.8502 32.5258 41.8502C38.3038 41.8502 44.0458 41.1842 49.6258 39.8522Z" fill="url(#paint22_radial_2984:287)"/>
<defs>
<radialGradient id="paint0_radial_2984:287" cx="0" cy="0" r="1" gradientUnits="userSpaceOnUse" gradientTransform="translate(26.8554 17.1325) scale(34.7434)">
<stop stop-color="#FFE030"/>
<stop offset="1" stop-color="#FFB92E"/>
</radialGradient>
<radialGradient id="paint1_radial_2984:287" cx="0" cy="0" r="1" gradientUnits="userSpaceOnUse" gradientTransform="translate(26.8554 17.1325) scale(27.3342)">
<stop stop-color="#FFEA5F"/>
<stop offset="1" stop-color="#FFBC47" stop-opacity="0"/>
</radialGradient>
<linearGradient id="paint2_linear_2984:287" x1="47.3692" y1="18.7367" x2="47.8817" y2="15.7456" gradientUnits="userSpaceOnUse">
<stop offset="0.00132565" stop-color="#3C2200"/>
<stop offset="1" stop-color="#7A4400"/>
</linearGradient>
<radialGradient id="paint3_radial_2984:287" cx="0" cy="0" r="1" gradientUnits="userSpaceOnUse" gradientTransform="translate(44.5394 24.8553) rotate(5.868) scale(5.42821 2.61894)">
<stop offset="0.00132565" stop-color="#7A4400"/>
<stop offset="1" stop-color="#643800"/>
</radialGradient>
<linearGradient id="paint4_linear_2984:287" x1="45.0004" y1="20.4302" x2="44.6618" y2="23.9209" gradientUnits="userSpaceOnUse">
<stop offset="0.00132565" stop-color="#3C2200"/>
<stop offset="1" stop-color="#512D00"/>
</linearGradient>
<radialGradient id="paint5_radial_2984:287" cx="0" cy="0" r="1" gradientUnits="userSpaceOnUse" gradientTransform="translate(32.5218 42.8605) scale(15.8654)">
<stop offset="0.00132565" stop-color="#7A4400"/>
<stop offset="1" stop-color="#643800"/>
</radialGradient>
<linearGradient id="paint6_linear_2984:287" x1="17.6428" y1="18.7135" x2="17.1302" y2="15.7225" gradientUnits="userSpaceOnUse">
<stop offset="0.00132565" stop-color="#3C2200"/>
<stop offset="1" stop-color="#7A4400"/>
</linearGradient>
<radialGradient id="paint7_radial_2984:287" cx="0" cy="0" r="1" gradientUnits="userSpaceOnUse" gradientTransform="translate(20.4437 24.8563) rotate(174.132) scale(5.42821 2.61894)">
<stop offset="0.00132565" stop-color="#7A4400"/>
<stop offset="1" stop-color="#643800"/>
</radialGradient>
<linearGradient id="paint8_linear_2984:287" x1="20.0112" y1="20.427" x2="20.3498" y2="23.9177" gradientUnits="userSpaceOnUse">
<stop offset="0.00132565" stop-color="#3C2200"/>
<stop offset="1" stop-color="#512D00"/>
</linearGradient>
<linearGradient id="paint9_linear_2984:287" x1="0.493556" y1="28.7857" x2="12.8235" y2="41.3857" gradientUnits="userSpaceOnUse">
<stop offset="0.0723628" stop-color="#17BBFE"/>
<stop offset="0.2085" stop-color="#D1F2FF"/>
<stop offset="0.668" stop-color="#80DAFE"/>
<stop offset="1" stop-color="#0099D6"/>
</linearGradient>
<linearGradient id="paint10_linear_2984:287" x1="15.8128" y1="47.5681" x2="0.332785" y2="26.0881" gradientUnits="userSpaceOnUse">
<stop stop-color="#D1F2FF"/>
<stop offset="0.668" stop-color="#80DAFE"/>
<stop offset="1" stop-color="#0099D6"/>
</linearGradient>
<linearGradient id="paint11_linear_2984:287" x1="3.67711" y1="26.2685" x2="11.4171" y2="47.5985" gradientUnits="userSpaceOnUse">
<stop offset="0.566" stop-color="#80DAFE"/>
<stop offset="1" stop-color="#0099D6"/>
</linearGradient>
<linearGradient id="paint12_linear_2984:287" x1="4.57923" y1="27.3028" x2="10.0993" y2="46.1427" gradientUnits="userSpaceOnUse">
<stop offset="0.566" stop-color="#80DAFE"/>
<stop offset="1" stop-color="#0099D6"/>
</linearGradient>
<linearGradient id="paint13_linear_2984:287" x1="6.22844" y1="41.3965" x2="8.74842" y2="22.4966" gradientUnits="userSpaceOnUse">
<stop stop-color="white"/>
<stop offset="1" stop-color="#80DAFE"/>
</linearGradient>
<radialGradient id="paint14_radial_2984:287" cx="0" cy="0" r="1" gradientUnits="userSpaceOnUse" gradientTransform="translate(32.759 48.4392) scale(13.1489 3.97493)">
<stop offset="0.2479" stop-color="#FF0000"/>
<stop offset="1" stop-color="#C20000"/>
</radialGradient>
<linearGradient id="paint15_linear_2984:287" x1="64.5498" y1="28.7857" x2="52.2198" y2="41.3857" gradientUnits="userSpaceOnUse">
<stop offset="0.0723628" stop-color="#17BBFE"/>
<stop offset="0.2085" stop-color="#D1F2FF"/>
<stop offset="0.668" stop-color="#80DAFE"/>
<stop offset="1" stop-color="#0099D6"/>
</linearGradient>
<linearGradient id="paint16_linear_2984:287" x1="49.2305" y1="47.5681" x2="64.7105" y2="26.0882" gradientUnits="userSpaceOnUse">
<stop stop-color="#D1F2FF"/>
<stop offset="0.668" stop-color="#80DAFE"/>
<stop offset="1" stop-color="#0099D6"/>
</linearGradient>
<linearGradient id="paint17_linear_2984:287" x1="61.3664" y1="26.2685" x2="53.6264" y2="47.5984" gradientUnits="userSpaceOnUse">
<stop offset="0.566" stop-color="#80DAFE"/>
<stop offset="1" stop-color="#0099D6"/>
</linearGradient>
<linearGradient id="paint18_linear_2984:287" x1="60.4642" y1="27.3028" x2="54.9442" y2="46.1427" gradientUnits="userSpaceOnUse">
<stop offset="0.566" stop-color="#80DAFE"/>
<stop offset="1" stop-color="#0099D6"/>
</linearGradient>
<linearGradient id="paint19_linear_2984:287" x1="58.815" y1="41.3966" x2="56.295" y2="22.4966" gradientUnits="userSpaceOnUse">
<stop stop-color="white"/>
<stop offset="1" stop-color="#80DAFE"/>
</linearGradient>
<linearGradient id="paint20_linear_2984:287" x1="12.0779" y1="39.5994" x2="32.5219" y2="39.5994" gradientUnits="userSpaceOnUse">
<stop offset="0.00132565" stop-color="#3C2200"/>
<stop offset="1" stop-color="#512D00"/>
</linearGradient>
<linearGradient id="paint21_linear_2984:287" x1="52.9606" y1="39.5994" x2="32.5165" y2="39.5994" gradientUnits="userSpaceOnUse">
<stop offset="0.00132565" stop-color="#3C2200"/>
<stop offset="1" stop-color="#512D00"/>
</linearGradient>
<radialGradient id="paint22_radial_2984:287" cx="0" cy="0" r="1" gradientUnits="userSpaceOnUse" gradientTransform="translate(32.5216 38.4352) scale(34.7931)">
<stop offset="0.00132565" stop-color="white"/>
<stop offset="1" stop-color="#A9BCBE"/>
</radialGradient>
</defs>
</svg>
